<?xml version="1.0" standalone="no"?>
<!DOCTYPE svg PUBLIC "-//W3C//DTD SVG 20010904//EN"
 "http://www.w3.org/TR/2001/REC-SVG-20010904/DTD/svg10.dtd">
<svg version="1.0" xmlns="http://www.w3.org/2000/svg"
 width="1024.000000pt" height="1024.000000pt" viewBox="0 0 1024.000000 1024.000000"
 preserveAspectRatio="xMidYMid meet">

<g transform="translate(0.000000,1024.000000) scale(0.100000,-0.100000)"
fill="#000000" stroke="none">
<path d="M3539 7930 c-628 -62 -1147 -549 -1259 -1180 -9 -48 -12 -493 -11
-1666 1 -1747 -2 -1661 58 -1849 38 -118 113 -271 184 -377 80 -116 258 -296
364 -366 146 -98 355 -185 510 -214 104 -19 3322 -19 3410 0 61 14 144 38 180
52 11 4 40 16 65 25 178 70 322 166 471 314 129 129 191 217 273 386 56 115
61 128 104 290 l26 100 3 1600 c4 1794 7 1709 -68 1930 -43 126 -69 182 -127
280 -110 183 -286 359 -476 474 -137 82 -363 166 -521 192 -81 14 -3056 22
-3186 9z m2291 -720 c7 -213 8 -213 240 -220 l165 -5 2 -680 2 -680 -42 80
c-181 345 -518 595 -892 662 -114 21 -381 23 -485 4 -107 -20 -282 -77 -375
-123 -177 -88 -356 -229 -478 -377 l-37 -45 0 767 0 767 948 -2 947 -3 5 -145z
m-2100 -390 l0 -450 -248 0 c-290 0 -323 6 -391 71 -24 23 -54 66 -68 95 -81
178 -29 391 131 541 137 128 296 190 494 192 l82 1 0 -450z m2951 436 c197
-35 381 -163 460 -318 105 -207 57 -437 -109 -536 l-47 -27 -277 -3 -278 -3 0
450 0 451 88 0 c48 -1 121 -7 163 -14z m-3496 -1161 c79 -79 115 -122 115
-138 0 -15 -36 -58 -115 -137 -113 -113 -116 -115 -161 -115 -36 0 -50 5 -65
24 -37 45 -26 76 55 159 l73 75 -73 71 c-59 57 -74 77 -74 100 0 46 35 76 87
76 42 0 47 -4 158 -115z m4030 90 c44 -43 34 -71 -51 -153 l-76 -74 76 -78
c42 -43 76 -85 76 -95 0 -49 -59 -90 -115 -79 -26 5 -59 32 -144 119 -61 62
-111 121 -111 130 0 20 130 158 203 216 59 48 105 52 142 14z m-1894 -18 c280
-73 492 -215 637 -429 64 -94 148 -305 129 -324 -8 -8 -107 38 -162 76 -110
75 -198 89 -291 46 -63 -29 -107 -81 -144 -169 -43 -103 -68 -129 -172 -182
-160 -83 -226 -171 -244 -323 -19 -168 105 -344 291 -414 56 -21 78 -23 345
-26 l285 -3 43 -42 c47 -45 172 -200 172 -213 0 -4 -453 -4 -1007 0 l-1006 6
-36 33 c-144 128 -244 311 -293 536 -29 130 -31 368 -5 491 53 249 153 437
325 610 175 176 378 283 652 345 104 23 358 14 481 -18z m-1591 -288 c0 -300
-4 -318 -72 -319 -46 0 -68 31 -68 95 0 46 3 55 18 55 16 1 16 1 0 11 -16 9
-18 30 -18 208 0 109 3 201 7 204 3 4 35 7 70 7 l63 0 0 -261z m2847 -16 c3
-302 3 -303 -62 -303 -54 0 -75 36 -75 127 l0 73 28 -5 c25 -6 24 -5 -5 9
l-33 15 0 174 c0 95 3 177 7 181 4 4 37 6 73 4 l65 -3 2 -272z m-3350 -349
c19 -5 317 -315 411 -427 63 -76 34 -172 -57 -184 l-43 -6 -119 123 -118 123
-3 -362 -3 -363 -28 -24 c-56 -48 -136 -20 -157 54 -7 24 -10 153 -8 370 l3
334 -121 -128 -122 -127 -43 6 c-83 11 -117 96 -66 163 43 58 410 443 426 447
9 3 18 5 21 6 3 0 15 -2 27 -5z m3784 -12 c15 -9 119 -114 232 -233 139 -147
207 -226 211 -246 14 -63 -37 -123 -104 -123 -36 0 -46 8 -154 123 l-115 122
-1 -335 c0 -350 -5 -398 -43 -425 -33 -23 -91 -19 -124 9 -28 24 -28 26 -31
155 -4 128 -3 132 22 161 44 53 47 146 6 202 l-20 27 30 47 c77 122 59 288
-41 379 -35 31 -39 40 -34 65 4 16 22 43 41 60 40 35 85 39 125 12z m-1163
-157 c99 -58 234 -101 356 -114 93 -9 99 -9 183 20 188 63 319 44 369 -53 21
-41 20 -89 -2 -127 -21 -36 -44 -49 -37 -21 8 30 -44 75 -94 83 -62 10 -116
-5 -328 -93 -290 -120 -392 -149 -595 -170 -119 -12 -173 -7 -244 23 l-49 21
-23 -27 c-27 -32 -22 -58 18 -92 67 -56 184 -66 531 -44 95 6 306 16 470 22
323 13 326 13 270 -40 -40 -36 -133 -81 -222 -106 -71 -19 -106 -21 -507 -25
-374 -3 -438 -1 -486 13 -146 42 -223 150 -193 268 16 64 53 100 155 152 47
24 97 54 112 67 45 39 93 112 117 177 25 64 67 111 102 111 11 0 55 -20 97
-45z m-2158 -695 c12 -12 25 -32 30 -46 6 -14 10 -152 10 -310 l0 -285 -67 3
-68 3 -2 314 c-2 218 1 318 8 328 17 20 66 16 89 -7z m2883 -327 c12 -248 10
-290 -15 -307 -25 -18 -113 -22 -123 -6 -3 5 -3 102 1 215 l7 206 26 14 c14 8
42 14 62 15 l36 0 6 -137z m-3233 -172 c19 -36 12 -90 -15 -116 -22 -23 -31
-25 -121 -25 l-97 0 -44 -45 c-23 -25 -46 -45 -51 -45 -4 0 -32 25 -62 56
l-55 55 64 60 c34 33 73 64 85 69 11 5 80 9 153 9 121 1 133 -1 143 -18z
m3804 -1 c23 -11 64 -42 91 -70 l50 -50 -58 -57 -57 -58 -48 48 -48 47 -100 0
c-128 0 -144 9 -144 84 0 28 5 57 12 64 8 8 53 12 137 12 104 0 132 -3 165
-20z m-906 -547 c-2 -303 -6 -388 -15 -387 -7 1 -526 2 -1153 3 l-1140 1 0
385 0 385 1155 0 1155 0 -2 -387z m-2508 -153 c0 -234 3 -337 12 -355 26 -58
-44 -55 1348 -55 l1282 0 29 29 29 29 0 341 0 341 253 0 c307 0 322 -3 413
-94 76 -76 99 -135 98 -251 -1 -100 -25 -167 -97 -267 -84 -117 -210 -206
-347 -245 -62 -17 -143 -18 -1650 -18 l-1585 0 -80 23 c-112 33 -189 76 -272
155 -122 116 -173 220 -173 351 0 88 10 126 52 195 40 67 91 108 160 132 45
16 87 18 291 19 l237 0 0 -330z"/>
<path d="M4885 6689 c-27 -17 -35 -29 -35 -61 0 -59 -10 -58 600 -58 574 0
588 1 613 41 13 21 1 65 -20 74 -10 4 -270 9 -578 12 -420 2 -565 0 -580 -8z"/>
<path d="M5793 6317 c-27 -22 -29 -44 -7 -75 14 -21 23 -22 134 -22 128 0 150
8 150 54 0 47 -17 54 -139 58 -99 3 -118 0 -138 -15z"/>
<path d="M3385 6998 c-11 -6 -68 -58 -127 -117 -142 -139 -142 -133 -4 -268
114 -112 143 -127 184 -96 43 32 40 65 -9 118 l-42 45 106 0 c85 0 109 3 125
18 29 24 33 74 8 108 -12 16 -30 20 -121 24 l-106 5 35 42 c43 50 46 84 10
112 -30 24 -32 24 -59 9z"/>
<path d="M6736 6989 c-39 -31 -36 -76 9 -119 19 -19 35 -37 35 -40 0 -4 -50
-6 -111 -6 -105 1 -112 0 -130 -23 -26 -32 -24 -67 6 -97 25 -25 30 -26 130
-22 58 1 105 1 105 -3 0 -3 -16 -20 -35 -39 -50 -48 -45 -109 11 -130 37 -14
65 4 183 123 80 81 102 109 97 124 -8 27 -239 253 -258 253 -8 0 -27 -9 -42
-21z"/>
<path d="M4716 5585 c-53 -19 -106 -63 -140 -118 -39 -63 -47 -163 -19 -228
29 -64 67 -105 126 -133 116 -56 223 -41 307 43 102 102 105 246 8 356 -75 85
-183 116 -282 80z m87 -93 c56 -53 19 -152 -57 -152 -84 0 -123 106 -60 161
40 35 72 32 117 -9z"/>
<path d="M5776 5134 c-20 -20 -20 -27 2 -47 26 -23 74 -21 107 5 l28 22 -23
18 c-28 22 -93 24 -114 2z"/>
<path d="M4107 3882 c-24 -26 -21 -68 5 -86 20 -14 128 -16 960 -16 587 0 946
4 962 10 15 5 31 21 38 35 10 22 8 29 -12 50 l-23 25 -957 0 c-914 0 -958 -1
-973 -18z"/>
<path d="M4108 3558 c-34 -26 -23 -80 20 -97 20 -8 287 -11 968 -9 780 3 944
5 957 17 24 19 22 78 -2 91 -31 16 -1922 14 -1943 -2z"/>
<path d="M3263 3548 c-84 -84 -113 -118 -113 -137 0 -19 29 -54 114 -139 105
-105 116 -113 147 -110 23 2 38 11 48 29 20 36 8 72 -39 118 -22 21 -40 40
-40 42 0 2 49 4 110 4 99 0 111 2 131 22 30 29 28 72 -5 100 -24 20 -37 23
-121 23 l-94 0 30 32 c34 38 38 79 9 108 -37 37 -57 26 -177 -92z"/>
<path d="M6735 3640 c-27 -30 -23 -75 10 -110 l29 -30 -106 0 c-103 0 -107 -1
-127 -26 -26 -33 -27 -65 -2 -95 18 -23 25 -24 135 -24 64 0 116 -1 116 -2 0
-1 -18 -20 -40 -42 -22 -22 -41 -48 -41 -58 -4 -60 19 -93 63 -93 24 0 52 21
149 117 65 64 119 123 119 132 0 8 -53 68 -118 133 -126 126 -150 139 -187 98z"/>
</g>
</svg>
